HIERARCHY
ROOT Hips
{
  OFFSET -35.2597 29.1586 114.425
  CHANNELS 6 Xposition Yposition Zposition Zrotation Xrotation Yrotation
  JOINT LeftUpLeg
  {
    OFFSET 8.64259 1.95398 -2.38835
    CHANNELS 3 Zrotation Xrotation Yrotation
    JOINT LeftLeg
    {
      OFFSET 43.7702 0 0
      CHANNELS 3 Zrotation Xrotation Yrotation
      JOINT LeftFoot
      {
        OFFSET 40.6238 0 0
        CHANNELS 3 Zrotation Xrotation Yrotation
        JOINT LeftToeBase
        {
          OFFSET 12.7242 0 0
          CHANNELS 3 Zrotation Xrotation Yrotation
          End Site
          {
            OFFSET 0 0 0
          }
        }
      }
    }
  }
  JOINT RightUpLeg
  {
    OFFSET -8.2249 1.95398 -2.59336
    CHANNELS 3 Zrotation Xrotation Yrotation
    JOINT RightLeg
    {
      OFFSET 43.5653 0 0
      CHANNELS 3 Zrotation Xrotation Yrotation
      JOINT RightFoot
      {
        OFFSET 40.6238 0 0
        CHANNELS 3 Zrotation Xrotation Yrotation
        JOINT RightToeBase
        {
          OFFSET 12.7242 0 0
          CHANNELS 3 Zrotation Xrotation Yrotation
          End Site
          {
            OFFSET 0 0 0
          }
        }
      }
    }
  }
  JOINT Spine
  {
    OFFSET 0.165834 0.87714 6.61349
    CHANNELS 3 Zrotation Xrotation Yrotation
    JOINT Spine1
    {
      OFFSET 7.38963 1.71661e-005 0
      CHANNELS 3 Zrotation Xrotation Yrotation
      JOINT Spine2
      {
        OFFSET 11.9445 1.14441e-005 0
        CHANNELS 3 Zrotation Xrotation Yrotation
        JOINT Spine3
        {
          OFFSET 14.7254 4.19617e-005 0
          CHANNELS 3 Zrotation Xrotation Yrotation
          JOINT Spine4
          {
            OFFSET 10.9679 0 0
            CHANNELS 3 Zrotation Xrotation Yrotation
            JOINT RightShoulder
            {
              OFFSET 2.46616 -1.6653 3.69651
              CHANNELS 3 Zrotation Xrotation Yrotation
              JOINT RightArm
              {
                OFFSET 13.0012 0 0
                CHANNELS 3 Zrotation Xrotation Yrotation
                JOINT RightForeArm
                {
                  OFFSET 28.7848 1.62311e-005 0
                  CHANNELS 3 Zrotation Xrotation Yrotation
                  JOINT RightHand
                  {
                    OFFSET 26.5688 1.62095e-005 0
                    CHANNELS 3 Zrotation Xrotation Yrotation
                    End Site
                    {
                      OFFSET 0 0 0
                    }
                  }
                }
              }
            }
            JOINT LeftShoulder
            {
              OFFSET 2.38034 -1.29275 -3.7523
              CHANNELS 3 Zrotation Xrotation Yrotation
              JOINT LeftArm
              {
                OFFSET 16.3182 6.07031e-005 0
                CHANNELS 3 Zrotation Xrotation Yrotation
                JOINT LeftForeArm
                {
                  OFFSET 27.0901 0 0
                  CHANNELS 3 Zrotation Xrotation Yrotation
                  JOINT LeftHand
                  {
                    OFFSET 24.5451 1.51738e-005 0
                    CHANNELS 3 Zrotation Xrotation Yrotation
                    End Site
                    {
                      OFFSET 0 0 0
                    }
                  }
                }
              }
            }
            JOINT Neck
            {
              OFFSET 5.0226 -0.0266342 0
              CHANNELS 3 Zrotation Xrotation Yrotation
              JOINT Head
              {
                OFFSET 6.69364 2.86102e-005 0
                CHANNELS 3 Zrotation Xrotation Yrotation
                End Site
                {
                  OFFSET 0 0 0
                }
              }
            }
          }
        }
      }
    }
  }
}
MOTION
Frames:	13
Frame Time:	0.0416667
23.8054 100.589 12.136 -157.445 -81.028 -158.376 -172.999 -4.74812 90.8565 -12.6963 -2.52343 -0.493407 69.9884 6.3489 -4.08329 20.994 -9.74696 9.42574 173.148 -3.11525 87.5292 -15.2774 -10.1507 -1.34405 67.0663 -4.57089 0.69665 28.44 -0.493447 2.14258 0.309453 7.62428 -90.0429 11.6258 0.595496 -0.147308 -0.0449913 0.588439 -0.173386 -22.5813 0.612242 0.038477 -2.56861 0.612249 0.0384844 87.9287 -36.0648 -108.385 44.2574 7.21304 -4.46779 -5.53914 -45.3352 -5.59717 -19.8069 2.12801 -17.7918 -85.5781 -56.9382 86.2776 -28.2226 -11.3872 -13.7674 3.06557 29.4489 -4.12775 6.24894 -0.507114 -9.89242 3.87525 -1.53089 -1.52177 -4.13699 -1.30438 2.25776 
23.6106 100.582 12.252 -160.185 -81.0937 -161.428 -173.24 -5.05342 90.5692 -12.2729 -2.37211 -0.302836 69.7552 6.49586 -3.48996 20.9299 -8.90102 8.02935 172.75 -3.17047 87.1723 -15.6421 -11.8619 -1.18977 66.9119 -4.6361 -0.9356 27.9106 -0.517878 2.93345 0.314891 7.6082 -90.0992 11.6582 0.579906 -0.2581 -0.0126749 0.567987 -0.283372 -22.5488 0.630666 -0.071873 -2.53618 0.630661 -0.0718753 88.6337 -35.0398 -107.48 45.0206 6.99064 -4.09604 -5.55588 -45.5543 -5.60783 -20.3535 2.02639 -16.9198 -86.0069 -57.9495 85.8087 -26.5817 -12.2169 -13.1474 3.11969 30.7821 -4.18394 1.45363 -0.392129 -13.4178 3.43033 -1.65931 -0.590103 -4.22908 -1.58706 1.89776 
23.2988 100.612 12.4602 -161.257 -81.157 -162.532 -173.452 -5.51283 90.5872 -11.6464 -2.41706 0.0122855 69.4171 6.24262 -3.78968 21.0863 -9.04102 8.4107 172.595 -3.41713 87.2151 -15.5847 -11.6368 -0.984554 67.102 -4.6946 -0.79528 27.6249 -0.419074 2.97926 0.336708 7.60628 -90.0774 11.662 0.633501 -0.220288 -0.00881001 0.623188 -0.247966 -22.5452 0.670417 -0.0197073 -2.53252 0.67041 -0.019713 88.6373 -35.4062 -107.34 44.2714 7.33752 -3.9504 -5.5258 -45.1556 -5.5882 -19.8137 2.30632 -18.8969 -86.0443 -57.1582 85.6557 -27.1201 -12.0146 -12.6049 3.11168 30.5929 -4.17573 3.91975 -0.383083 -9.5864 3.66778 -1.67199 -1.15795 -4.70184 -1.50635 1.81057 
22.9797 100.601 12.5363 -161.918 -81.3047 -163.243 -173.447 -5.1766 90.6822 -11.8839 -1.99834 0.084246 69.1817 6.08666 -3.6583 21.3994 -9.17493 8.94636 172.7 -3.47146 87.3905 -15.456 -11.3727 -0.981081 67.1985 -4.81492 -0.818504 27.6765 -0.45403 3.02759 0.309989 7.57514 -90.1125 11.7244 0.563762 -0.283487 0.0535227 0.550743 -0.308034 -22.4825 0.6229 -0.100936 -2.4699 0.622901 -0.100941 88.572 -35.0888 -107.576 44.0435 7.47015 -3.79457 -5.66823 -46.9853 -5.68064 -20.4562 2.31897 -18.4551 -86.0984 -57.9687 85.6848 -26.382 -12.4323 -11.6354 3.09984 30.3014 -4.16324 2.57178 -0.322921 -9.7932 3.52871 -1.57324 -0.664939 -4.41083 -1.48461 1.64373 
22.7712 100.588 12.517 -165.708 -81.3132 -167.149 -173.322 -5.51402 90.8892 -11.7328 -1.516 -0.0116496 69.3212 6.16453 -3.84224 21.8079 -8.78552 8.74982 172.483 -3.56726 87.3061 -15.6307 -10.9338 -0.767173 67.3706 -4.92656 -0.824849 27.5633 -0.512883 3.36902 0.261328 7.59594 -90.1089 11.6826 0.468742 -0.266097 0.0117285 0.456575 -0.286473 -22.524 0.527038 -0.112921 -2.5114 0.527042 -0.112922 88.6809 -35.1077 -107.369 44.3587 7.24934 -4.1595 -5.50884 -44.9334 -5.57789 -20.6995 2.29692 -18.1633 -86.1384 -57.9843 85.6318 -26.6664 -12.3079 -11.605 3.1271 30.9656 -4.19197 1.68934 -0.262058 -9.20443 3.35186 -1.72607 -0.891159 -3.82676 -1.58799 1.58119 
22.6119 100.599 12.612 -166.031 -81.0897 -167.655 -173.201 -5.61161 90.876 -11.8123 -1.39595 -0.0731097 69.2077 6.19149 -3.86588 21.2683 -9.04127 8.59856 172.376 -3.76232 87.17 -15.823 -10.9992 -0.782188 67.5562 -4.96749 -0.791737 27.6761 -0.514093 3.22783 0.267255 7.60963 -90.0949 11.6551 0.487139 -0.240008 -0.0157591 0.476101 -0.26122 -22.5516 0.53675 -0.0824985 -2.53897 0.536741 -0.0825032 88.6239 -34.9426 -107.533 44.5805 7.19548 -4.01202 -5.49993 -44.8113 -5.57206 -21.2849 2.39389 -18.3127 -86.0939 -57.9748 85.692 -27.2558 -12.0198 -11.8607 3.16554 31.8534 -4.2319 2.65671 -0.258508 -8.31392 3.50357 -1.81952 -0.736804 -4.34459 -1.70772 1.41077 
22.5065 100.574 12.6434 -166.302 -81.3104 -167.755 -173.211 -5.29889 91.0694 -12.0428 -1.31329 0.023462 69.3504 6.22871 -3.97713 21.237 -9.33844 9.03589 172.612 -3.71919 87.4629 -15.5444 -10.8622 -0.810665 67.179 -4.70145 -0.44334 28.6316 -0.741039 2.71754 0.258353 7.58384 -90.1136 11.7069 0.460584 -0.274582 0.0360158 0.448058 -0.294597 -22.4997 0.521817 -0.123458 -2.48709 0.521813 -0.123464 88.5457 -35.151 -107.601 44.653 7.14845 -4.0782 -5.47829 -44.5169 -5.55714 -22.3163 2.56873 -18.5954 -86.0163 -57.7615 85.772 -26.8061 -12.2562 -11.477 3.05312 29.1237 -4.11461 0.850384 -0.284068 -11.1638 3.33697 -1.86778 -0.964526 -4.33293 -1.71898 1.44154 
22.4822 100.57 12.6276 -167.17 -81.4233 -168.4 -172.999 -4.98942 91.3995 -12.3043 -0.934691 -0.0741607 69.3318 6.21334 -3.95714 21.7918 -8.81574 8.77928 172.808 -3.72669 87.7868 -15.4893 -10.4609 -0.80487 67.2607 -4.78162 -0.567309 28.1291 -0.555369 2.76662 0.242078 7.56206 -90.1429 11.7504 0.414409 -0.328544 0.0794501 0.399538 -0.346467 -22.4561 0.493989 -0.188804 -2.44346 0.493982 -0.188815 88.6621 -35.205 -107.367 45.025 6.9736 -4.16011 -5.3917 -43.3261 -5.50515 -22.6469 2.59036 -18.4818 -86.0989 -57.6719 85.6463 -26.6722 -12.3015 -11.6474 3.02017 28.2618 -4.08081 0.910265 -0.312877 -12.0778 3.23474 -1.87066 -1.0452 -4.37731 -1.71322 1.54807 
22.6344 100.607 12.6492 -168.671 -80.9269 -169.976 -172.824 -5.5359 91.4165 -12.3623 -0.760924 -0.218498 69.5428 6.27304 -3.85018 21.4134 -8.81974 8.39577 172.629 -4.35086 87.5733 -15.366 -10.4043 -0.836402 67.4081 -4.94261 -0.815367 27.4198 -0.414543 3.23009 0.246941 7.62382 -90.1407 11.6268 0.425307 -0.324594 -0.0441345 0.410612 -0.343012 -22.5797 0.503196 -0.181772 -2.56707 0.503202 -0.181769 88.8109 -35.0943 -107.135 44.5216 7.21925 -4.01391 -5.55707 -45.5694 -5.60871 -21.551 2.55483 -19.003 -86.1013 -58.1041 85.6984 -26.3595 -12.3778 -12.4363 3.03909 28.7635 -4.1003 2.05801 -0.345066 -10.9429 3.44146 -1.7816 -0.781387 -4.65318 -1.66455 1.31839 
22.7893 100.588 12.5135 -169.605 -81.0978 -170.94 -172.971 -5.27658 91.2352 -12.4302 -0.512289 -0.200289 69.3803 6.22588 -3.70709 21.731 -8.9995 9.01138 172.372 -4.04851 87.3383 -15.4375 -10.4886 -0.63838 67.3098 -4.86993 -0.613876 27.6968 -0.45397 3.00101 0.230063 7.60202 -90.1411 11.6703 0.39148 -0.322141 -0.000593141 0.376917 -0.339067 -22.5361 0.470185 -0.189595 -2.52343 0.470194 -0.189594 88.6745 -34.9415 -107.441 44.0515 7.48996 -3.70508 -5.7416 -47.8864 -5.73063 -20.868 2.42616 -18.7704 -86.0467 -58.4927 85.8229 -25.7318 -12.6371 -12.7982 3.09719 30.2313 -4.16027 2.25416 -0.368931 -11.2711 3.3154 -1.56407 -0.477878 -4.51624 -1.49799 1.22926 
22.9117 100.594 12.3415 -169.893 -81.1155 -171.006 -173.031 -4.90858 91.3064 -12.8534 -0.588518 -0.0749994 69.548 6.18121 -3.84451 20.8877 -9.25825 8.55016 172.693 -4.07652 87.6342 -15.1449 -10.2712 -0.790281 66.9974 -4.75365 -0.691654 28.1446 -0.589264 2.86327 0.269359 7.59554 -90.145 11.6835 0.467787 -0.338029 0.012566 0.452462 -0.358292 -22.5231 0.547741 -0.181807 -2.51049 0.54775 -0.181806 88.7716 -35.2469 -107.152 43.9339 7.57291 -3.56367 -5.70911 -47.4934 -5.70892 -20.5419 2.42244 -18.9751 -86.2342 -58.1572 85.5223 -25.4939 -12.7369 -12.9322 3.14981 31.5 -4.21579 1.10787 -0.314661 -11.7226 3.23971 -1.79647 -1.28924 -4.40289 -1.61636 2.12622 
23.1337 100.638 12.2588 -171.127 -80.4744 -172.513 -173.172 -5.91751 90.9302 -12.142 -0.668187 -0.0165795 69.3384 6.22374 -3.77817 21.1811 -8.97494 8.40363 172.317 -4.44587 87.1274 -15.6095 -10.5569 -0.816707 67.0965 -4.73336 -0.963328 27.8275 -0.560741 3.18439 0.245632 7.68378 -90.115 11.5068 0.434939 -0.273488 -0.164103 0.422478 -0.292375 -22.6998 0.497018 -0.13013 -2.68712 0.497025 -0.130123 88.6057 -35.2445 -107.457 44.303 7.36203 -3.80421 -5.45907 -44.2586 -5.54588 -20.36 2.30671 -18.4448 -86.2705 -58.3785 85.501 -25.0669 -12.9215 -13.1087 3.2152 32.9769 -4.28502 1.34094 -0.313807 -11.2592 3.24519 -1.80002 -1.16448 -4.31971 -1.63768 2.08292 
23.224 100.6 11.9887 -170.831 -81.0994 -171.682 -173.176 -4.5981 91.2673 -13.0434 -0.470283 0.0656052 69.5797 6.13196 -3.58827 21.1888 -8.98224 8.42298 172.97 -3.95603 87.8888 -15.0408 -10.0288 -0.915551 66.645 -4.55025 -0.803462 28.1003 -0.656017 3.14585 0.262402 7.61146 -90.1609 11.6516 0.446578 -0.36712 -0.0193622 0.429996 -0.386418 -22.555 0.536264 -0.215922 -2.54231 0.536271 -0.21593 88.5405 -35.391 -107.523 43.9412 7.52513 -3.74391 -5.7258 -47.6963 -5.71982 -20.7676 2.41982 -18.8013 -86.3724 -57.7524 85.2781 -25.4249 -12.77 -12.9137 3.21442 32.9521 -4.28382 1.67309 -0.311432 -10.619 2.95532 -1.93518 -1.58166 -4.18122 -1.70635 2.20479 
